<svg width="151" height="30" viewBox="0 0 151 30" fill="none" xmlns="http://www.w3.org/2000/svg">
<path d="M0.50293 29V26.6621L3.52734 26.1426V4.86035L0.50293 4.34082V1.98438H3.52734H11.0791C13.4665 1.98438 15.5446 2.55339 17.3135 3.69141C19.0947 4.82943 20.4801 6.39421 21.4697 8.38574C22.4593 10.3773 22.9541 12.6533 22.9541 15.2139V15.7891C22.9541 18.2878 22.4779 20.5391 21.5254 22.543C20.5729 24.5345 19.2184 26.1117 17.4619 27.2744C15.7178 28.4248 13.652 29 11.2646 29H0.50293ZM7.18262 26.1426H11.0791C12.7861 26.1426 14.252 25.6787 15.4766 24.751C16.7012 23.8109 17.6413 22.5615 18.2969 21.0029C18.9648 19.432 19.2988 17.694 19.2988 15.7891V15.1768C19.2988 13.21 18.9648 11.4535 18.2969 9.90723C17.6413 8.34863 16.7012 7.11784 15.4766 6.21484C14.252 5.31185 12.7861 4.86035 11.0791 4.86035H7.18262V26.1426ZM34.3652 29.3896C32.1882 29.3896 30.4873 28.6908 29.2627 27.293C28.0381 25.8952 27.4258 23.7181 27.4258 20.7617V11.7998L25.125 11.2803V8.92383H27.4258H31.0811V20.7988C31.0811 22.9388 31.3965 24.4108 32.0273 25.2148C32.6582 26.0189 33.6416 26.4209 34.9775 26.4209C36.2764 26.4209 37.3464 26.1611 38.1875 25.6416C39.041 25.1097 39.6842 24.3613 40.1172 23.3965V11.7998L37.4268 11.2803V8.92383H40.1172H43.7725V26.1426L46.0732 26.6621V29H40.4883L40.2471 26.0312C39.6162 27.1074 38.7998 27.9362 37.7979 28.5176C36.8083 29.099 35.6641 29.3896 34.3652 29.3896ZM57.7256 29.3896C55.9072 29.3896 54.3239 28.9691 52.9756 28.1279C51.6273 27.2744 50.582 26.0931 49.8398 24.584C49.0977 23.0749 48.7266 21.3307 48.7266 19.3516V18.5723C48.7266 16.6673 49.0853 14.9603 49.8027 13.4512C50.5202 11.9421 51.5531 10.7484 52.9014 9.87012C54.2497 8.99186 55.8577 8.55273 57.7256 8.55273C59.346 8.55273 60.7624 8.81868 61.9746 9.35059C63.1992 9.88249 64.2259 10.6123 65.0547 11.54L65.1475 16.3643H62.29L61.6592 12.8574C61.2386 12.4245 60.7129 12.0781 60.082 11.8184C59.4512 11.5586 58.709 11.4287 57.8555 11.4287C56.7669 11.4287 55.8083 11.7503 54.9795 12.3936C54.1631 13.0368 53.526 13.8965 53.0684 14.9727C52.6107 16.0488 52.3818 17.2487 52.3818 18.5723V19.3516C52.3818 20.8112 52.5921 22.0791 53.0127 23.1553C53.4456 24.2314 54.0579 25.0664 54.8496 25.6602C55.6536 26.2415 56.6061 26.5322 57.707 26.5322C58.944 26.5322 59.9707 26.1921 60.7871 25.5117C61.6035 24.8314 62.1045 23.8975 62.29 22.71H65.5742L65.6113 22.8213C65.5495 23.9717 65.2093 25.0479 64.5908 26.0498C63.9723 27.0518 63.0879 27.862 61.9375 28.4805C60.7995 29.0866 59.3955 29.3896 57.7256 29.3896ZM68.2832 29V26.6621L71.3076 26.1426V2.93066L68.2832 2.41113V0.0546875H74.9629V26.1426L77.9873 26.6621V29H68.2832ZM81.1787 29V26.6621L83.2197 26.4209L83.1641 26.3467L77.3564 18.8506L79.249 15.9375L87.3574 26.2168L90.252 26.6621V29H81.1787ZM74.7031 23.1924L73.3486 20.3164L82.0693 11.6328L82.1621 11.5215L80.0098 11.2803V8.92383H88.6562V11.2803L86.0771 11.7627L74.7031 23.1924ZM99.1582 29V26.6621L102.183 26.1426V4.74902H96.0596L95.5215 8.49707H92.7754V1.98438H115.227V8.49707H112.518L111.961 4.74902H105.838V26.1426L108.862 26.6621V29H99.1582ZM116.841 29V26.6621L119.865 26.1426V11.7998L116.841 11.2803V8.92383H123.521V26.1426L126.545 26.6621V29H116.841ZM119.68 3.96973V0.0546875H123.521V3.96973H119.68ZM128.883 29V26.6621L131.907 26.1426V2.93066L128.883 2.41113V0.0546875H135.562V26.1426L138.587 26.6621V29H128.883ZM141.778 29V26.6621L143.819 26.4209L143.764 26.3467L137.956 18.8506L139.849 15.9375L147.957 26.2168L150.852 26.6621V29H141.778ZM135.303 23.1924L133.948 20.3164L142.669 11.6328L142.762 11.5215L140.609 11.2803V8.92383H149.256V11.2803L146.677 11.7627L135.303 23.1924Z" fill="black"/>
</svg>
