<svg width="96" height="20" viewBox="0 0 96 20" fill="none" xmlns="http://www.w3.org/2000/svg">
<path d="M0.949219 19V17.5234L2.85938 17.1953V3.75391L0.949219 3.42578V1.9375H2.85938H7.62891C9.13672 1.9375 10.4492 2.29688 11.5664 3.01562C12.6914 3.73438 13.5664 4.72266 14.1914 5.98047C14.8164 7.23828 15.1289 8.67578 15.1289 10.293V10.6562C15.1289 12.2344 14.8281 13.6562 14.2266 14.9219C13.625 16.1797 12.7695 17.1758 11.6602 17.9102C10.5586 18.6367 9.25391 19 7.74609 19H0.949219ZM5.16797 17.1953H7.62891C8.70703 17.1953 9.63281 16.9023 10.4062 16.3164C11.1797 15.7227 11.7734 14.9336 12.1875 13.9492C12.6094 12.957 12.8203 11.8594 12.8203 10.6562V10.2695C12.8203 9.02734 12.6094 7.91797 12.1875 6.94141C11.7734 5.95703 11.1797 5.17969 10.4062 4.60938C9.63281 4.03906 8.70703 3.75391 7.62891 3.75391H5.16797V17.1953ZM22.3359 19.2461C20.9609 19.2461 19.8867 18.8047 19.1133 17.9219C18.3398 17.0391 17.9531 15.6641 17.9531 13.7969V8.13672L16.5 7.80859V6.32031H17.9531H20.2617V13.8203C20.2617 15.1719 20.4609 16.1016 20.8594 16.6094C21.2578 17.1172 21.8789 17.3711 22.7227 17.3711C23.543 17.3711 24.2188 17.207 24.75 16.8789C25.2891 16.543 25.6953 16.0703 25.9688 15.4609V8.13672L24.2695 7.80859V6.32031H25.9688H28.2773V17.1953L29.7305 17.5234V19H26.2031L26.0508 17.125C25.6523 17.8047 25.1367 18.3281 24.5039 18.6953C23.8789 19.0625 23.1562 19.2461 22.3359 19.2461ZM37.0898 19.2461C35.9414 19.2461 34.9414 18.9805 34.0898 18.4492C33.2383 17.9102 32.5781 17.1641 32.1094 16.2109C31.6406 15.2578 31.4062 14.1562 31.4062 12.9062V12.4141C31.4062 11.2109 31.6328 10.1328 32.0859 9.17969C32.5391 8.22656 33.1914 7.47266 34.043 6.91797C34.8945 6.36328 35.9102 6.08594 37.0898 6.08594C38.1133 6.08594 39.0078 6.25391 39.7734 6.58984C40.5469 6.92578 41.1953 7.38672 41.7188 7.97266L41.7773 11.0195H39.9727L39.5742 8.80469C39.3086 8.53125 38.9766 8.3125 38.5781 8.14844C38.1797 7.98438 37.7109 7.90234 37.1719 7.90234C36.4844 7.90234 35.8789 8.10547 35.3555 8.51172C34.8398 8.91797 34.4375 9.46094 34.1484 10.1406C33.8594 10.8203 33.7148 11.5781 33.7148 12.4141V12.9062C33.7148 13.8281 33.8477 14.6289 34.1133 15.3086C34.3867 15.9883 34.7734 16.5156 35.2734 16.8906C35.7812 17.2578 36.3828 17.4414 37.0781 17.4414C37.8594 17.4414 38.5078 17.2266 39.0234 16.7969C39.5391 16.3672 39.8555 15.7773 39.9727 15.0273H42.0469L42.0703 15.0977C42.0312 15.8242 41.8164 16.5039 41.4258 17.1367C41.0352 17.7695 40.4766 18.2812 39.75 18.6719C39.0312 19.0547 38.1445 19.2461 37.0898 19.2461ZM43.7578 19V17.5234L45.668 17.1953V2.53516L43.7578 2.20703V0.71875H47.9766V17.1953L49.8867 17.5234V19H43.7578ZM51.9023 19V17.5234L53.1914 17.3711L53.1562 17.3242L49.4883 12.5898L50.6836 10.75L55.8047 17.2422L57.6328 17.5234V19H51.9023ZM47.8125 15.332L46.957 13.5156L52.4648 8.03125L52.5234 7.96094L51.1641 7.80859V6.32031H56.625V7.80859L54.9961 8.11328L47.8125 15.332ZM63.2578 19V17.5234L65.168 17.1953V3.68359H61.3008L60.9609 6.05078H59.2266V1.9375H73.4062V6.05078H71.6953L71.3438 3.68359H67.4766V17.1953L69.3867 17.5234V19H63.2578ZM74.4258 19V17.5234L76.3359 17.1953V8.13672L74.4258 7.80859V6.32031H78.6445V17.1953L80.5547 17.5234V19H74.4258ZM76.2188 3.19141V0.71875H78.6445V3.19141H76.2188ZM82.0312 19V17.5234L83.9414 17.1953V2.53516L82.0312 2.20703V0.71875H86.25V17.1953L88.1602 17.5234V19H82.0312ZM90.1758 19V17.5234L91.4648 17.3711L91.4297 17.3242L87.7617 12.5898L88.957 10.75L94.0781 17.2422L95.9062 17.5234V19H90.1758ZM86.0859 15.332L85.2305 13.5156L90.7383 8.03125L90.7969 7.96094L89.4375 7.80859V6.32031H94.8984V7.80859L93.2695 8.11328L86.0859 15.332Z" fill="#333333"/>
</svg>
