<svg width="20" height="20" viewBox="0 0 20 20" fill="none" xmlns="http://www.w3.org/2000/svg">
<path d="M16.5 10C16.5 13.5899 13.5899 16.5 10 16.5V18.5C14.6944 18.5 18.5 14.6944 18.5 10H16.5ZM10 16.5C6.41015 16.5 3.5 13.5899 3.5 10H1.5C1.5 14.6944 5.30558 18.5 10 18.5V16.5ZM3.5 10C3.5 6.41015 6.41015 3.5 10 3.5V1.5C5.30558 1.5 1.5 5.30558 1.5 10H3.5ZM10 3.5C13.5899 3.5 16.5 6.41015 16.5 10H18.5C18.5 5.30558 14.6944 1.5 10 1.5V3.5Z" fill="#2F80ED" fill-opacity="0.75"/>
<path d="M9.87373 6.79289C9.48321 6.40237 8.85004 6.40237 8.45952 6.79289C8.06899 7.18342 8.06899 7.81658 8.45952 8.20711L9.87373 6.79289ZM11.6666 10L12.3737 10.7071C12.5613 10.5196 12.6666 10.2652 12.6666 10C12.6666 9.73478 12.5613 9.48043 12.3737 9.29289L11.6666 10ZM8.45952 11.7929C8.06899 12.1834 8.06899 12.8166 8.45952 13.2071C8.85004 13.5976 9.48321 13.5976 9.87373 13.2071L8.45952 11.7929ZM8.45952 8.20711L10.9595 10.7071L12.3737 9.29289L9.87373 6.79289L8.45952 8.20711ZM10.9595 9.29289L8.45952 11.7929L9.87373 13.2071L12.3737 10.7071L10.9595 9.29289Z" fill="#2F80ED" fill-opacity="0.75"/>
</svg>
