<svg width="24" height="24" viewBox="0 0 24 24" fill="none" xmlns="http://www.w3.org/2000/svg">
<path d="M12 24C18.6274 24 24 18.6274 24 12C24 5.37258 18.6274 0 12 0C5.37258 0 0 5.37258 0 12C0 18.6274 5.37258 24 12 24Z" fill="#FF4500"/>
<path d="M20 11.9998C20 11.0314 19.214 10.2454 18.2456 10.2454C17.7684 10.2454 17.3474 10.4279 17.0386 10.7366C15.8456 9.88049 14.1895 9.31909 12.3649 9.24892L13.1649 5.50155L15.7614 6.04892C15.7895 6.70857 16.3368 7.2419 17.0105 7.2419C17.6982 7.2419 18.2596 6.6805 18.2596 5.99278C18.2596 5.30506 17.6982 4.74365 17.0105 4.74365C16.5193 4.74365 16.0982 5.02435 15.9017 5.44541L12.9965 4.82786C12.9123 4.81383 12.8281 4.82786 12.7579 4.86997C12.6877 4.91207 12.6456 4.98225 12.6175 5.06646L11.7333 9.24892C9.86666 9.30506 8.19648 9.85242 6.98947 10.7366C6.68069 10.4419 6.24561 10.2454 5.78245 10.2454C4.81403 10.2454 4.02806 11.0314 4.02806 11.9998C4.02806 12.7156 4.44912 13.3191 5.06666 13.5998C5.03859 13.7682 5.02455 13.9507 5.02455 14.1331C5.02455 16.8279 8.15438 19.0033 12.0281 19.0033C15.9017 19.0033 19.0316 16.8279 19.0316 14.1331C19.0316 13.9507 19.0175 13.7822 18.9895 13.6138C19.5649 13.3331 20 12.7156 20 11.9998ZM7.99999 13.2489C7.99999 12.5612 8.5614 11.9998 9.24912 11.9998C9.93684 11.9998 10.4982 12.5612 10.4982 13.2489C10.4982 13.9366 9.93684 14.498 9.24912 14.498C8.5614 14.498 7.99999 13.9366 7.99999 13.2489ZM14.9754 16.5472C14.1193 17.4033 12.4912 17.4594 12.014 17.4594C11.5368 17.4594 9.89473 17.3893 9.05262 16.5472C8.92631 16.4208 8.92631 16.2103 9.05262 16.084C9.17894 15.9577 9.38947 15.9577 9.51578 16.084C10.0491 16.6173 11.2 16.8138 12.0281 16.8138C12.8561 16.8138 13.993 16.6173 14.5403 16.084C14.6667 15.9577 14.8772 15.9577 15.0035 16.084C15.1017 16.2244 15.1017 16.4208 14.9754 16.5472ZM14.7509 14.498C14.0632 14.498 13.5017 13.9366 13.5017 13.2489C13.5017 12.5612 14.0632 11.9998 14.7509 11.9998C15.4386 11.9998 16 12.5612 16 13.2489C16 13.9366 15.4386 14.498 14.7509 14.498Z" fill="white"/>
</svg>
