<svg width="48" height="48" fill="none" xmlns="http://www.w3.org/2000/svg"><path fill-rule="evenodd" clip-rule="evenodd" d="M24 0c13.255 0 24 10.745 24 24S37.255 48 24 48 0 37.255 0 24 10.745 0 24 0zm0 4c11.046 0 20 8.954 20 20s-8.954 20-20 20S4 35.046 4 24 12.954 4 24 4z" fill="url(#paint0_angular_33_112)"/><path fill-rule="evenodd" clip-rule="evenodd" d="M45.563 28.799a2 2 0 002.24-1.728C47.934 26.052 48 25.027 48 24a2 2 0 10-4 0 20 20 0 01-.164 2.56 2 2 0 001.727 2.239z" fill="#F0B500"/><defs><radialGradient id="paint0_angular_33_112" cx="0" cy="0" r="1" gradientUnits="userSpaceOnUse" gradientTransform="matrix(24 0 0 24 24 24)"><stop stop-color="#27AE60" stop-opacity="0"/><stop offset="0" stop-color="#F0B500" stop-opacity="0"/><stop offset="1" stop-color="#F0B500"/></radialGradient></defs></svg>