<svg width="96" height="20" fill="none" xmlns="http://www.w3.org/2000/svg"><path d="M.95 19v-1.477l1.91-.328V3.754L.95 3.426V1.937h6.679c1.508 0 2.82.36 3.937 1.079 1.125.718 2 1.707 2.625 2.964.625 1.258.938 2.696.938 4.313v.363c0 1.578-.3 3-.902 4.266-.602 1.258-1.457 2.254-2.567 2.988-1.1.727-2.406 1.09-3.914 1.09H.95zm4.218-1.805h2.46c1.079 0 2.005-.293 2.778-.879.774-.593 1.367-1.382 1.781-2.367.422-.992.633-2.09.633-3.293v-.386c0-1.243-.21-2.352-.633-3.329-.414-.984-1.007-1.761-1.78-2.332-.774-.57-1.7-.855-2.778-.855H5.168v13.441zm17.168 2.051c-1.375 0-2.45-.441-3.223-1.324-.773-.883-1.16-2.258-1.16-4.125v-5.66L16.5 7.809V6.32h3.762v7.5c0 1.352.199 2.282.597 2.79.399.507 1.02.761 1.864.761.82 0 1.496-.164 2.027-.492a3.14 3.14 0 001.219-1.418V8.137l-1.7-.328V6.32h4.008v10.875l1.453.328V19h-3.527l-.152-1.875c-.399.68-.914 1.203-1.547 1.57-.625.367-1.348.551-2.168.551zm14.754 0c-1.149 0-2.149-.265-3-.797-.852-.539-1.512-1.285-1.98-2.238-.47-.953-.704-2.055-.704-3.305v-.492c0-1.203.227-2.281.68-3.234a5.41 5.41 0 011.957-2.262c.852-.555 1.867-.832 3.047-.832 1.023 0 1.918.168 2.683.504a5.51 5.51 0 011.946 1.383l.058 3.047h-1.804l-.399-2.215a2.912 2.912 0 00-.996-.657c-.398-.164-.867-.246-1.406-.246a2.88 2.88 0 00-1.816.61c-.516.406-.919.949-1.208 1.629-.289.68-.433 1.437-.433 2.273v.492c0 .922.133 1.723.398 2.403.274.68.66 1.207 1.16 1.582.508.367 1.11.55 1.805.55.781 0 1.43-.214 1.945-.644.516-.43.832-1.02.95-1.77h2.074l.023.07a4.263 4.263 0 01-.644 2.04c-.39.633-.95 1.144-1.676 1.535-.719.383-1.605.574-2.66.574zM43.758 19v-1.477l1.91-.328V2.535l-1.91-.328V.719h4.219v16.476l1.91.328V19h-6.13zm8.144 0v-1.477l1.29-.152-.036-.047-3.668-4.734 1.196-1.84 5.12 6.492 1.829.281V19h-5.73zm-4.09-3.668l-.855-1.816 5.508-5.485.058-.07-1.359-.152V6.32h5.461v1.49l-1.629.304-7.184 7.219zM63.258 19v-1.477l1.91-.328V3.684h-3.867l-.34 2.367h-1.734V1.937h14.18v4.114h-1.712l-.351-2.367h-3.867v13.511l1.91.328V19h-6.13zm11.168 0v-1.477l1.91-.328V8.137l-1.91-.328V6.32h4.218v10.875l1.91.328V19h-6.128zm1.793-15.809V.72h2.425v2.47H76.22zM82.03 19v-1.477l1.91-.328V2.535l-1.91-.328V.719h4.219v16.476l1.91.328V19H82.03zm8.145 0v-1.477l1.289-.152-.035-.047-3.668-4.734 1.195-1.84 5.121 6.492 1.828.281V19h-5.73zm-4.09-3.668l-.855-1.816 5.507-5.485.059-.07-1.36-.152V6.32h5.461v1.49l-1.629.304-7.183 7.219z" fill="#333"/></svg>