<?xml version="1.0" encoding="utf-8"?><svg viewBox="0 0 24 24" xmlns="http://www.w3.org/2000/svg" xmlns:xlink="http://www.w3.org/1999/xlink"><style>:root>svg{display:none}:root>svg:target{display:block}</style><svg fill="none" viewBox="0 0 10 6" id="icon-caret" xmlns="http://www.w3.org/2000/svg"><path d="M9 1L5 5 1 1" stroke="#777" stroke-width="2" stroke-linecap="round" stroke-linejoin="round"/></svg><svg fill="none" viewBox="0 0 24 24" id="icon-close" xmlns="http://www.w3.org/2000/svg"><path d="M18 18L6 6M18 6L6 18" stroke="#333" stroke-width="2" stroke-linecap="round" stroke-linejoin="round"/></svg><svg fill="none" viewBox="0 0 18 18" id="icon-download" xmlns="http://www.w3.org/2000/svg"><path d="M9 3.75v10.5M13.5 9.75L9 14.25l-4.5-4.5" stroke="currentColor" stroke-width="2" stroke-linecap="round" stroke-linejoin="round"/></svg><svg fill="none" viewBox="0 0 24 24" id="icon-download-line" xmlns="http://www.w3.org/2000/svg"><path d="M6 21h12M12 3v14M17 12l-5 5-5-5" stroke="#816100" stroke-width="2" stroke-linecap="round" stroke-linejoin="round"/></svg><svg fill="none" viewBox="0 0 24 24" id="icon-github" xmlns="http://www.w3.org/2000/svg"><g clip-path="url(#eclip0_27_134)" fill="#191717"><path fill-rule="evenodd" clip-rule="evenodd" d="M12 .5a12.043 12.043 0 00-7.773 2.847A11.917 11.917 0 00.16 10.522a11.877 11.877 0 001.576 8.086 11.99 11.99 0 006.469 5.145c.596.11.82-.259.82-.573 0-.314-.011-1.225-.015-2.22-3.339.72-4.044-1.41-4.044-1.41-.544-1.383-1.331-1.746-1.331-1.746-1.09-.739.081-.725.081-.725 1.206.085 1.84 1.23 1.84 1.23 1.07 1.824 2.808 1.297 3.491.989.108-.773.42-1.298.763-1.597-2.666-.3-5.468-1.324-5.468-5.896a4.607 4.607 0 011.236-3.202c-.123-.3-.535-1.514.117-3.162 0 0 1.008-.32 3.3 1.223a11.453 11.453 0 016.01 0c2.29-1.543 3.296-1.223 3.296-1.223.654 1.644.243 2.857.12 3.162a4.597 4.597 0 011.238 3.206c0 4.582-2.808 5.592-5.479 5.886.43.372.813 1.097.813 2.211 0 1.597-.014 2.88-.014 3.274 0 .318.216.69.825.573a11.99 11.99 0 006.47-5.146 11.877 11.877 0 001.575-8.087 11.917 11.917 0 00-4.07-7.175A12.043 12.043 0 0012.004.5H12z"/><path d="M4.544 17.632c-.025.06-.12.077-.198.036-.078-.042-.135-.119-.108-.18.028-.061.122-.077.2-.036.077.042.136.12.106.18zM5.031 18.171a.2.2 0 01-.246-.055c-.078-.083-.094-.198-.034-.25.06-.05.167-.027.245.056.077.083.095.198.035.25zM5.504 18.857c-.073.051-.198 0-.268-.103a.197.197 0 010-.285c.074-.049.199 0 .268.101.07.101.072.235 0 .287zM6.146 19.52c-.066.074-.199.054-.308-.045-.11-.099-.135-.233-.07-.304.066-.071.2-.051.312.046.114.096.136.233.066.304zM7.046 19.908c-.03.093-.165.134-.3.095-.135-.04-.224-.15-.199-.245.026-.095.163-.139.3-.095.138.043.225.148.2.245zM8.028 19.975c0 .097-.111.18-.255.182-.143.002-.26-.077-.26-.174 0-.097.111-.18.255-.182.143-.002.26.075.26.174zM8.942 19.823c.018.097-.082.197-.225.221-.143.024-.268-.033-.286-.128-.018-.095.086-.198.225-.224.139-.025.268.034.286.13z"/></g><defs><clipPath id="eclip0_27_134"><path fill="#fff" d="M0 0h24v24H0z"/></clipPath></defs></svg><svg fill="none" viewBox="0 0 16 16" id="icon-info" xmlns="http://www.w3.org/2000/svg"><path d="M8.75 11H8V8h-.75M8 5h.008m6.742 3a6.75 6.75 0 11-13.5 0 6.75 6.75 0 0113.5 0z" stroke="#BDBDBD" stroke-width="2" stroke-linecap="round" stroke-linejoin="round"/></svg><svg fill="none" viewBox="0 0 20 20" id="icon-link" xmlns="http://www.w3.org/2000/svg"><path d="M16.5 10a6.5 6.5 0 01-6.5 6.5v2a8.5 8.5 0 008.5-8.5h-2zM10 16.5A6.5 6.5 0 013.5 10h-2a8.5 8.5 0 008.5 8.5v-2zM3.5 10A6.5 6.5 0 0110 3.5v-2A8.5 8.5 0 001.5 10h2zM10 3.5a6.5 6.5 0 016.5 6.5h2A8.5 8.5 0 0010 1.5v2zM9.874 6.793A1 1 0 008.46 8.207l1.414-1.414zM11.667 10l.707.707a1 1 0 000-1.414l-.707.707zM8.46 11.793a1 1 0 101.414 1.414L8.46 11.793zm0-3.586l2.5 2.5 1.414-1.414-2.5-2.5L8.46 8.207zm2.5 1.086l-2.5 2.5 1.414 1.414 2.5-2.5-1.415-1.414z" fill="#2F80ED" fill-opacity=".75"/></svg><svg fill="none" viewBox="0 0 24 24" id="icon-reddit" xmlns="http://www.w3.org/2000/svg"><path d="M12 24c6.627 0 12-5.373 12-12S18.627 0 12 0 0 5.373 0 12s5.373 12 12 12z" fill="#FF4500"/><path d="M20 12c0-.969-.786-1.755-1.754-1.755-.478 0-.899.183-1.207.492-1.193-.857-2.85-1.418-4.674-1.488l.8-3.747 2.596.547a1.25 1.25 0 002.499-.056c0-.688-.562-1.25-1.25-1.25-.49 0-.912.281-1.108.702l-2.905-.617a.35.35 0 00-.24.042.342.342 0 00-.14.196l-.884 4.183c-1.866.056-3.537.603-4.744 1.488a1.77 1.77 0 00-1.207-.492c-.968 0-1.754.786-1.754 1.755 0 .716.421 1.32 1.039 1.6-.028.168-.042.35-.042.533 0 2.695 3.13 4.87 7.003 4.87 3.874 0 7.004-2.175 7.004-4.87 0-.182-.015-.35-.043-.52A1.816 1.816 0 0020 12zM8 13.249c0-.688.561-1.25 1.25-1.25.687 0 1.248.562 1.248 1.25s-.561 1.249-1.249 1.249c-.688 0-1.249-.561-1.249-1.25zm6.975 3.298c-.856.856-2.484.912-2.961.912-.477 0-2.12-.07-2.961-.912a.33.33 0 010-.463.33.33 0 01.463 0c.533.533 1.684.73 2.512.73.828 0 1.965-.197 2.512-.73a.33.33 0 01.464 0 .361.361 0 01-.029.463zm-.224-2.049c-.688 0-1.25-.561-1.25-1.25 0-.687.562-1.248 1.25-1.248S16 12.56 16 13.249c0 .688-.561 1.249-1.25 1.249z" fill="#fff"/></svg><svg fill="none" viewBox="0 0 24 24" id="icon-undo" xmlns="http://www.w3.org/2000/svg"><path d="M10 9a1 1 0 100-2v2zM5 8H4a1 1 0 001 1V8zm1-5a1 1 0 00-2 0h2zm4 4H5v2h5V7zM6 8V3H4v5h2z" fill="#fff"/><path d="M5.29 16.357a8 8 0 10.189-8.991" stroke="#fff" stroke-width="2" stroke-linecap="round" stroke-linejoin="round"/></svg><svg fill="none" viewBox="0 0 24 24" id="icon-youtube" xmlns="http://www.w3.org/2000/svg"><path d="M23.76 7.2s-.233-1.655-.955-2.381c-.914-.957-1.936-.961-2.405-1.018-3.356-.243-8.395-.243-8.395-.243h-.01s-5.039 0-8.395.243c-.469.057-1.49.061-2.405 1.018-.722.726-.951 2.38-.951 2.38S0 9.146 0 11.087v1.819c0 1.94.24 3.885.24 3.885s.233 1.655.95 2.382c.915.956 2.115.923 2.65 1.026 1.92.183 8.16.24 8.16.24s5.044-.01 8.4-.25c.469-.055 1.49-.06 2.405-1.016.722-.727.956-2.382.956-2.382S24 14.85 24 12.905v-1.82c0-1.94-.24-3.885-.24-3.885zM9.52 15.112V8.367l6.483 3.384-6.483 3.361z" fill="#FF0302"/></svg></svg>