<svg width="151" height="30" fill="none" xmlns="http://www.w3.org/2000/svg"><path d="M.503 29v-2.338l3.024-.52V4.86L.503 4.34V1.985h10.576c2.387 0 4.466.57 6.235 1.707 1.78 1.138 3.166 2.703 4.156 4.695.99 1.991 1.484 4.267 1.484 6.828v.575c0 2.499-.476 4.75-1.429 6.754-.952 1.992-2.307 3.569-4.063 4.731-1.744 1.15-3.81 1.726-6.197 1.726H.503zm6.68-2.857h3.896c1.707 0 3.173-.464 4.398-1.392 1.224-.94 2.164-2.19 2.82-3.748.668-1.571 1.002-3.309 1.002-5.214v-.612c0-1.967-.334-3.723-1.002-5.27-.656-1.558-1.596-2.79-2.82-3.692-1.225-.903-2.69-1.355-4.398-1.355H7.183v21.283zm27.182 3.247c-2.177 0-3.878-.7-5.102-2.097-1.225-1.398-1.837-3.575-1.837-6.531V11.8l-2.301-.52V8.924h5.956v11.875c0 2.14.316 3.612.946 4.416.631.804 1.615 1.206 2.95 1.206 1.3 0 2.37-.26 3.21-.78.854-.531 1.497-1.28 1.93-2.244V11.8l-2.69-.52V8.924h6.346v17.219l2.3.52V29h-5.585l-.24-2.969c-.632 1.076-1.448 1.905-2.45 2.487-.99.581-2.134.872-3.433.872zm23.36 0c-1.818 0-3.401-.42-4.75-1.262-1.348-.854-2.393-2.035-3.135-3.544-.742-1.51-1.113-3.253-1.113-5.232v-.78c0-1.905.358-3.612 1.076-5.12.717-1.51 1.75-2.704 3.098-3.582 1.349-.878 2.957-1.317 4.825-1.317 1.62 0 3.036.266 4.249.798 1.224.531 2.25 1.261 3.08 2.189l.092 4.824H62.29l-.63-3.507a4.636 4.636 0 00-1.578-1.039c-.63-.26-1.373-.39-2.227-.39-1.088 0-2.047.322-2.875.966-.817.643-1.454 1.502-1.912 2.579-.457 1.076-.686 2.276-.686 3.6v.779c0 1.46.21 2.727.63 3.803.434 1.076 1.046 1.911 1.838 2.505.804.581 1.756.872 2.857.872 1.237 0 2.264-.34 3.08-1.02.816-.68 1.318-1.614 1.503-2.802h3.284l.037.111a6.747 6.747 0 01-1.02 3.229c-.619 1.002-1.503 1.812-2.653 2.43-1.139.607-2.543.91-4.212.91zM68.284 29v-2.338l3.025-.52V2.932l-3.025-.52V.055h6.68v26.088l3.024.52V29h-9.704zm12.896 0v-2.338l2.04-.241-.055-.074-5.808-7.496 1.893-2.913 8.108 10.279 2.895.445V29H81.18zm-6.476-5.808l-1.354-2.876 8.72-8.683.093-.111-2.152-.242V8.924h8.646v2.356l-2.579.483-11.374 11.43zM99.158 29v-2.338l3.025-.52V4.75H96.06l-.538 3.748h-2.747V1.984h22.452v6.513h-2.709l-.557-3.748h-6.123v21.394l3.024.52V29h-9.704zm17.683 0v-2.338l3.024-.52V11.8l-3.024-.52V8.924h6.68v17.219l3.024.52V29h-9.704zm2.839-25.03V.055h3.841V3.97h-3.841zM128.883 29v-2.338l3.024-.52V2.932l-3.024-.52V.055h6.679v26.088l3.025.52V29h-9.704zm12.895 0v-2.338l2.041-.241-.055-.074-5.808-7.496 1.893-2.913 8.108 10.279 2.895.445V29h-9.074zm-6.475-5.808l-1.355-2.876 8.721-8.683.093-.111-2.153-.242V8.924h8.647v2.356l-2.579.483-11.374 11.43z" fill="#000"/></svg>